nColumns=19
nRows=51
DataType=double
version=3
OpenSimVersion=4.1
endheader
time	ground_force_calcn_r_vx	ground_force_calcn_r_vy	ground_force_calcn_r_vz	ground_force_calcn_r_px	ground_force_calcn_r_py	ground_force_calcn_r_pz	ground_force_calcn_r_mx	ground_force_calcn_r_my	ground_force_calcn_r_mz	ground_force_calcn_l_vx	ground_force_calcn_l_vy	ground_force_calcn_l_vz	ground_force_calcn_l_px	ground_force_calcn_l_py	ground_force_calcn_l_pz	ground_force_calcn_l_mx	ground_force_calcn_l_my	ground_force_calcn_l_mz
1.41	-4.52335	4.01943	1.36537	1.43799	0	-0.382269	4.05425e-10	-3.60258e-10	-1.22377e-10	118.992	883.114	36.8326	0.953599	0	-0.563529	0.0906293	0.672619	0.0280533
1.415	-7.32774	8.13307	4.00691	1.43955	0	-0.383554	2.11552e-09	-2.34802e-09	-1.1568e-09	122.403	871.082	38.039	0.95552	0	-0.561937	0.0353214	0.251364	0.0109767
1.42	-7.90901	16.052	12.515	1.4398	0	-0.384785	5.06371e-09	-1.02772e-08	-8.01267e-09	125.766	854.073	36.3374	0.95761	0	-0.560239	-0.00686656	-0.0466306	-0.00198395
1.425	3.64467	29.2465	23.0718	1.43953	0	-0.385007	-4.80462e-08	-3.85544e-07	-3.04146e-07	129.196	832.401	33.871	0.959854	0	-0.558476	-0.0362539	-0.233581	-0.00950457
1.43	19.0129	49.7727	29.3114	1.43997	0	-0.384971	-1.57445e-06	-4.12167e-06	-2.42728e-06	132.652	806.314	31.427	0.962251	0	-0.556666	-0.0584336	-0.355185	-0.0138437
1.435	26.262	96.3081	35.7316	1.44049	0	-0.38513	-8.24014e-06	-3.02182e-05	-1.12114e-05	135.474	776.157	28.7461	0.964763	0	-0.554897	-0.0663667	-0.380227	-0.0140823
1.44	11.1732	173.099	35.233	1.44073	0	-0.385439	-1.04197e-05	-0.000161425	-3.2857e-05	137.193	742.125	26.3091	0.967348	0	-0.553226	-0.0366015	-0.197991	-0.00701898
1.445	-6.46099	251.964	33.0084	1.44107	0	-0.38568	1.72593e-05	-0.000673076	-8.81758e-05	138.06	703.747	24.3979	0.970037	0	-0.551575	0.0345328	0.176028	0.00610262
1.45	-22.4713	318.351	29.426	1.44151	0	-0.385859	0.000166325	-0.00235633	-0.000217802	137.656	660.58	22.2718	0.972902	0	-0.550007	0.106773	0.512382	0.0172752
1.455	-39.5844	373.107	22.3667	1.44198	0	-0.386017	0.000726509	-0.00684778	-0.000410506	136.47	611.425	19.8285	0.976005	0	-0.548742	0.15346	0.687544	0.022297
1.46	-53.7651	418.898	17.0224	1.44252	0	-0.386095	0.00217941	-0.0169803	-0.000690015	134.083	552.503	17.3556	0.979559	0	-0.547865	0.178274	0.734599	0.0230757
1.465	-66.4445	459.315	12.8107	1.44314	0	-0.386086	0.00531438	-0.036737	-0.00102463	129.591	480.647	14.1175	0.984015	0	-0.547382	0.181714	0.673966	0.0197956
1.47	-75.2155	497.947	9.79291	1.44394	0	-0.385955	0.0104319	-0.0690622	-0.00135822	124.289	401.337	10.3419	0.989789	0	-0.547446	0.161092	0.520174	0.0134042
1.475	-81.2737	536.836	7.28897	1.44498	0	-0.385658	0.016724	-0.110466	-0.00149988	115.918	321.511	6.23838	0.997736	0	-0.54759	0.100851	0.279721	0.00542752
1.48	-86.2492	576.156	4.92543	1.44629	0	-0.385166	0.0211304	-0.141154	-0.00120669	103.806	250.072	1.76635	1.00807	0	-0.547646	0.0302532	0.0728814	0.000514788
1.485	-91.2156	614.193	1.46838	1.44778	0	-0.384534	0.0189834	-0.127823	-0.000305593	95.9533	210.114	-2.75735	1.01448	0	-0.545701	0.000687854	0.00150623	-1.97665e-05
1.49	-96.6495	647.901	-3.26612	1.44937	0	-0.383832	0.00859505	-0.0576179	0.000290456	91.2994	195.372	-5.70039	1.01566	0	-0.543674	-1.12008e-05	-2.39686e-05	6.99337e-07
1.495	-101.966	678.69	-8.71682	1.45151	0	-0.382769	-0.010173	0.0677119	-0.000869665	84.0445	190.114	-8.57111	1.01595	0	-0.543614	-6.09684e-05	-0.000137914	6.21774e-06
1.5	-107.191	709.747	-14.7713	1.45492	0	-0.380911	-0.0440914	0.291943	-0.00607595	74.4883	186.211	-11.5844	1.01622	0	-0.543661	-0.000115787	-0.000289453	1.80071e-05
1.505	-112.585	735.465	-22.0759	1.45923	0	-0.378541	-0.09241	0.603669	-0.0181199	66.3473	181.061	-12.2872	1.01664	0	-0.543629	-9.30054e-05	-0.000253811	1.72242e-05
1.51	-116.677	752.525	-29.6592	1.46379	0	-0.376135	-0.1406	0.906817	-0.0357403	59.3213	175.771	-12.3523	1.01717	0	-0.543568	-6.85768e-05	-0.000203196	1.42795e-05
1.515	-119.503	763.192	-37.1478	1.46834	0	-0.37394	-0.188997	1.20701	-0.0587504	53.2877	171.576	-12.0664	1.01779	0	-0.5435	-5.80808e-05	-0.000187009	1.31517e-05
1.52	-121.349	769.844	-44.8658	1.47269	0	-0.372129	-0.246185	1.5618	-0.0910205	46.7073	168.199	-10.7914	1.01846	0	-0.543422	-4.67236e-05	-0.000168258	1.07951e-05
1.525	-121.896	774.951	-51.6807	1.47681	0	-0.370695	-0.281747	1.7912	-0.119453	39.9444	163.966	-9.11847	1.01921	0	-0.543358	-2.4418e-05	-0.000100232	5.57411e-06
1.53	-121.494	780.999	-57.6154	1.48085	0	-0.369441	-0.266389	1.71242	-0.126328	34.09	155.726	-7.6365	1.02007	0	-0.543317	-5.28442e-06	-2.41397e-05	1.18376e-06
1.535	-120.319	789.264	-62.5884	1.48494	0	-0.368214	-0.21902	1.43672	-0.113932	28.1991	141.419	-6.34008	1.02104	0	-0.543293	-2.49811e-07	-1.25281e-06	5.61656e-08
1.54	-118.323	798.571	-66.2848	1.48906	0	-0.366995	-0.156873	1.05875	-0.0878809	21.5869	120.864	-5.70134	1.02211	0	-0.543291	-1.69754e-09	-9.50447e-09	4.48339e-10
1.545	-115.703	808.276	-68.7833	1.49315	0	-0.3659	-0.0782569	0.546683	-0.0465221	14.539	95.4441	-4.82828	1.02329	0	-0.543279	-2.00363e-12	-1.31533e-11	6.65391e-13
1.55	-112.334	819.771	-70.3	1.49714	0	-0.365053	0.0155772	-0.113676	0.0097484	6.75869	68.8812	-3.619	1.02455	0	-0.543237	-6.92912e-16	-7.06182e-15	3.71026e-16
1.555	-108.632	833.399	-70.3797	1.501	0	-0.364494	0.109342	-0.838843	0.0708394	-2.52222	43.105	-5.2638	1.02582	0	-0.543294	-2.23839e-16	3.82542e-15	-4.67144e-16
1.56	-104.763	848.037	-69.1756	1.50451	0	-0.364203	0.179005	-1.44902	0.118198	-9.78594	18.9194	-6.80016	1.02715	0	-0.543391	7.77445e-16	-1.50305e-15	5.40239e-16
1.565	-100.426	862.111	-67.4979	1.50747	0	-0.364095	0.213823	-1.83556	0.143713	0	0	0	0	0	0	0	0	0
1.57	-96.2585	871.461	-65.0398	1.51001	0	-0.364058	0.23311	-2.11043	0.157508	0	0	0	0	0	0	0	0	0
1.575	-92.1126	873.865	-62.186	1.51233	0	-0.364047	0.258332	-2.45077	0.174402	0	0	0	0	0	0	0	0	0
1.58	-87.5213	872.466	-59.9266	1.51441	0	-0.364074	0.283423	-2.82533	0.194062	0	0	0	0	0	0	0	0	0
1.585	-82.7843	869.338	-58.2363	1.51622	0	-0.364138	0.301259	-3.1636	0.211927	0	0	0	0	0	0	0	0	0
1.59	-77.9869	863.727	-57.0096	1.51774	0	-0.364219	0.31497	-3.48838	0.230248	0	0	0	0	0	0	0	0	0
1.595	-73.0673	855.527	-56.2369	1.51906	0	-0.364308	0.321395	-3.76313	0.247365	0	0	0	0	0	0	0	0	0
1.6	-68.1502	845.4	-55.8183	1.52021	0	-0.364408	0.317957	-3.94425	0.260423	0	0	0	0	0	0	0	0	0
1.605	-63.3142	833.841	-55.7015	1.5212	0	-0.364516	0.307136	-4.04495	0.270207	0	0	0	0	0	0	0	0	0
1.61	-58.5185	821.255	-55.8522	1.52205	0	-0.364628	0.290483	-4.07667	0.277248	0	0	0	0	0	0	0	0	0
1.615	-53.8411	807.94	-56.281	1.52281	0	-0.364743	0.26938	-4.04232	0.281588	0	0	0	0	0	0	0	0	0
1.62	-49.3532	794.059	-56.8975	1.52348	0	-0.364864	0.245409	-3.94847	0.282924	0	0	0	0	0	0	0	0	0
1.625	-45.1183	779.819	-57.5156	1.52408	0	-0.364994	0.220373	-3.80889	0.280925	0	0	0	0	0	0	0	0	0
1.63	-41.171	765.482	-57.9697	1.52462	0	-0.365136	0.195552	-3.63584	0.275341	0	0	0	0	0	0	0	0	0
1.635	-37.5306	751.277	-58.1594	1.52511	0	-0.365289	0.172189	-3.44683	0.266833	0	0	0	0	0	0	0	0	0
1.64	-34.1901	737.451	-58.0436	1.52553	0	-0.36545	0.15061	-3.24852	0.255686	0	0	0	0	0	0	0	0	0
1.645	-31.0144	724.228	-57.6948	1.5259	0	-0.36562	0.129941	-3.03431	0.241724	0	0	0	0	0	0	0	0	0
1.65	-27.9308	711.754	-57.1614	1.52622	0	-0.365794	0.109964	-2.80218	0.225045	0	0	0	0	0	0	0	0	0
1.655	-24.837	700.126	-56.4718	1.5265	0	-0.365971	0.0904991	-2.55106	0.205767	0	0	0	0	0	0	0	0	0
1.66	-21.6546	689.356	-55.606	1.52678	0	-0.366151	0.0717951	-2.28553	0.18436	0	0	0	0	0	0	0	0	0
